<mxfile host="app.diagrams.net" agent="Mozilla/5.0 (Windows NT 10.0; Win64; x64) AppleWebKit/537.36 (KHTML, like Gecko) Chrome/138.0.0.0 Safari/537.36" version="28.0.4">
  <diagram name="PÃ¡gina-1" id="4uw8DqAWk537gzBH5fdQ">
    <mxGraphModel dx="3872" dy="2060" grid="1" gridSize="10" guides="1" tooltips="1" connect="1" arrows="1" fold="1" page="1" pageScale="1" pageWidth="827" pageHeight="1169" math="0" shadow="0">
      <root>
        <mxCell id="0" />
        <mxCell id="1" parent="0" />
        <mxCell id="KsVcDdZhZaaucAL4_CSv-9" value="&amp;lt;&amp;lt;Abstract&amp;gt;&amp;gt;&amp;nbsp;&lt;span style=&quot;background-color: transparent; color: light-dark(rgb(0, 0, 0), rgb(255, 255, 255));&quot;&gt;Persona&lt;/span&gt;" style="swimlane;fontStyle=1;align=center;verticalAlign=top;childLayout=stackLayout;horizontal=1;startSize=26;horizontalStack=0;resizeParent=1;resizeParentMax=0;resizeLast=0;collapsible=1;marginBottom=0;whiteSpace=wrap;html=1;" vertex="1" parent="1">
          <mxGeometry x="330" y="10" width="200" height="120" as="geometry">
            <mxRectangle x="40" y="100" width="160" height="30" as="alternateBounds" />
          </mxGeometry>
        </mxCell>
        <mxCell id="KsVcDdZhZaaucAL4_CSv-10" value="- id: UUID&lt;div&gt;- nombres: String&lt;/div&gt;&lt;div&gt;- apellidos: String&lt;/div&gt;&lt;div&gt;- numeroDocumento: String&lt;/div&gt;" style="text;strokeColor=none;fillColor=none;align=left;verticalAlign=top;spacingLeft=4;spacingRight=4;overflow=hidden;rotatable=0;points=[[0,0.5],[1,0.5]];portConstraint=eastwest;whiteSpace=wrap;html=1;" vertex="1" parent="KsVcDdZhZaaucAL4_CSv-9">
          <mxGeometry y="26" width="200" height="64" as="geometry" />
        </mxCell>
        <mxCell id="KsVcDdZhZaaucAL4_CSv-11" value="" style="line;strokeWidth=1;fillColor=none;align=left;verticalAlign=middle;spacingTop=-1;spacingLeft=3;spacingRight=3;rotatable=0;labelPosition=right;points=[];portConstraint=eastwest;strokeColor=inherit;" vertex="1" parent="KsVcDdZhZaaucAL4_CSv-9">
          <mxGeometry y="90" width="200" height="30" as="geometry" />
        </mxCell>
        <mxCell id="KsVcDdZhZaaucAL4_CSv-62" style="edgeStyle=orthogonalEdgeStyle;rounded=0;orthogonalLoop=1;jettySize=auto;html=1;entryX=0;entryY=0.5;entryDx=0;entryDy=0;endArrow=block;endFill=0;" edge="1" parent="1" source="KsVcDdZhZaaucAL4_CSv-13" target="KsVcDdZhZaaucAL4_CSv-9">
          <mxGeometry relative="1" as="geometry">
            <Array as="points">
              <mxPoint x="-130" y="70" />
            </Array>
          </mxGeometry>
        </mxCell>
        <mxCell id="KsVcDdZhZaaucAL4_CSv-65" style="edgeStyle=orthogonalEdgeStyle;rounded=0;orthogonalLoop=1;jettySize=auto;html=1;entryX=0.5;entryY=0;entryDx=0;entryDy=0;endArrow=none;endFill=0;" edge="1" parent="1" source="KsVcDdZhZaaucAL4_CSv-13" target="KsVcDdZhZaaucAL4_CSv-26">
          <mxGeometry relative="1" as="geometry" />
        </mxCell>
        <mxCell id="KsVcDdZhZaaucAL4_CSv-66" value="1" style="edgeLabel;html=1;align=center;verticalAlign=middle;resizable=0;points=[];" vertex="1" connectable="0" parent="KsVcDdZhZaaucAL4_CSv-65">
          <mxGeometry x="-0.8522" y="-2" relative="1" as="geometry">
            <mxPoint x="-8" as="offset" />
          </mxGeometry>
        </mxCell>
        <mxCell id="KsVcDdZhZaaucAL4_CSv-67" value="1" style="edgeLabel;html=1;align=center;verticalAlign=middle;resizable=0;points=[];" vertex="1" connectable="0" parent="KsVcDdZhZaaucAL4_CSv-65">
          <mxGeometry x="0.8227" y="2" relative="1" as="geometry">
            <mxPoint x="8" y="8" as="offset" />
          </mxGeometry>
        </mxCell>
        <mxCell id="KsVcDdZhZaaucAL4_CSv-13" value="Administrador" style="swimlane;fontStyle=1;align=center;verticalAlign=top;childLayout=stackLayout;horizontal=1;startSize=26;horizontalStack=0;resizeParent=1;resizeParentMax=0;resizeLast=0;collapsible=1;marginBottom=0;whiteSpace=wrap;html=1;" vertex="1" parent="1">
          <mxGeometry x="-300" y="233" width="340" height="104" as="geometry" />
        </mxCell>
        <mxCell id="KsVcDdZhZaaucAL4_CSv-14" value="- fechaInicio: Timestamp&lt;div&gt;- fechaFin:&amp;nbsp;&lt;span style=&quot;background-color: transparent; color: light-dark(rgb(0, 0, 0), rgb(255, 255, 255));&quot;&gt;Timestamp&lt;/span&gt;&lt;/div&gt;" style="text;strokeColor=none;fillColor=none;align=left;verticalAlign=top;spacingLeft=4;spacingRight=4;overflow=hidden;rotatable=0;points=[[0,0.5],[1,0.5]];portConstraint=eastwest;whiteSpace=wrap;html=1;" vertex="1" parent="KsVcDdZhZaaucAL4_CSv-13">
          <mxGeometry y="26" width="340" height="44" as="geometry" />
        </mxCell>
        <mxCell id="KsVcDdZhZaaucAL4_CSv-15" value="" style="line;strokeWidth=1;fillColor=none;align=left;verticalAlign=middle;spacingTop=-1;spacingLeft=3;spacingRight=3;rotatable=0;labelPosition=right;points=[];portConstraint=eastwest;strokeColor=inherit;" vertex="1" parent="KsVcDdZhZaaucAL4_CSv-13">
          <mxGeometry y="70" width="340" height="8" as="geometry" />
        </mxCell>
        <mxCell id="KsVcDdZhZaaucAL4_CSv-16" value="+autenticar(numeroDocumento: String)::&amp;nbsp;&lt;span class=&quot;selected&quot;&gt;Promise&amp;lt;Object&amp;gt;&lt;/span&gt;" style="text;strokeColor=none;fillColor=none;align=left;verticalAlign=top;spacingLeft=4;spacingRight=4;overflow=hidden;rotatable=0;points=[[0,0.5],[1,0.5]];portConstraint=eastwest;whiteSpace=wrap;html=1;" vertex="1" parent="KsVcDdZhZaaucAL4_CSv-13">
          <mxGeometry y="78" width="340" height="26" as="geometry" />
        </mxCell>
        <mxCell id="KsVcDdZhZaaucAL4_CSv-63" style="edgeStyle=orthogonalEdgeStyle;rounded=0;orthogonalLoop=1;jettySize=auto;html=1;entryX=0.5;entryY=1;entryDx=0;entryDy=0;endArrow=block;endFill=0;" edge="1" parent="1" source="KsVcDdZhZaaucAL4_CSv-18" target="KsVcDdZhZaaucAL4_CSv-9">
          <mxGeometry relative="1" as="geometry" />
        </mxCell>
        <mxCell id="KsVcDdZhZaaucAL4_CSv-110" style="edgeStyle=orthogonalEdgeStyle;rounded=0;orthogonalLoop=1;jettySize=auto;html=1;endArrow=none;endFill=0;" edge="1" parent="1" source="KsVcDdZhZaaucAL4_CSv-18" target="KsVcDdZhZaaucAL4_CSv-42">
          <mxGeometry relative="1" as="geometry">
            <Array as="points">
              <mxPoint x="1350" y="270" />
            </Array>
          </mxGeometry>
        </mxCell>
        <mxCell id="KsVcDdZhZaaucAL4_CSv-111" value="1" style="edgeLabel;html=1;align=center;verticalAlign=middle;resizable=0;points=[];" vertex="1" connectable="0" parent="KsVcDdZhZaaucAL4_CSv-110">
          <mxGeometry x="-0.9733" y="-1" relative="1" as="geometry">
            <mxPoint x="-6" y="8" as="offset" />
          </mxGeometry>
        </mxCell>
        <mxCell id="KsVcDdZhZaaucAL4_CSv-112" value="&amp;lt;- Gestionado por" style="edgeLabel;html=1;align=center;verticalAlign=middle;resizable=0;points=[];" vertex="1" connectable="0" parent="KsVcDdZhZaaucAL4_CSv-110">
          <mxGeometry x="-0.1922" y="-1" relative="1" as="geometry">
            <mxPoint x="-3" y="9" as="offset" />
          </mxGeometry>
        </mxCell>
        <mxCell id="KsVcDdZhZaaucAL4_CSv-113" value="Gestiona -&amp;gt;" style="edgeLabel;html=1;align=center;verticalAlign=middle;resizable=0;points=[];" vertex="1" connectable="0" parent="KsVcDdZhZaaucAL4_CSv-110">
          <mxGeometry x="-0.2264" relative="1" as="geometry">
            <mxPoint x="27" y="-10" as="offset" />
          </mxGeometry>
        </mxCell>
        <mxCell id="KsVcDdZhZaaucAL4_CSv-114" value="1" style="edgeLabel;html=1;align=center;verticalAlign=middle;resizable=0;points=[];" vertex="1" connectable="0" parent="KsVcDdZhZaaucAL4_CSv-110">
          <mxGeometry x="0.9805" y="1" relative="1" as="geometry">
            <mxPoint x="9" as="offset" />
          </mxGeometry>
        </mxCell>
        <mxCell id="KsVcDdZhZaaucAL4_CSv-18" value="Entrenador" style="swimlane;fontStyle=1;align=center;verticalAlign=top;childLayout=stackLayout;horizontal=1;startSize=26;horizontalStack=0;resizeParent=1;resizeParentMax=0;resizeLast=0;collapsible=1;marginBottom=0;whiteSpace=wrap;html=1;" vertex="1" parent="1">
          <mxGeometry x="160" y="233" width="540" height="240" as="geometry" />
        </mxCell>
        <mxCell id="KsVcDdZhZaaucAL4_CSv-19" value="- correo: String&lt;br&gt;- fechaInicio: Timestamp&lt;div&gt;- fechaFin:&amp;nbsp;&lt;span style=&quot;background-color: transparent; color: light-dark(rgb(0, 0, 0), rgb(255, 255, 255));&quot;&gt;Timestamp&lt;/span&gt;&lt;/div&gt;" style="text;strokeColor=none;fillColor=none;align=left;verticalAlign=top;spacingLeft=4;spacingRight=4;overflow=hidden;rotatable=0;points=[[0,0.5],[1,0.5]];portConstraint=eastwest;whiteSpace=wrap;html=1;" vertex="1" parent="KsVcDdZhZaaucAL4_CSv-18">
          <mxGeometry y="26" width="540" height="54" as="geometry" />
        </mxCell>
        <mxCell id="KsVcDdZhZaaucAL4_CSv-20" value="" style="line;strokeWidth=1;fillColor=none;align=left;verticalAlign=middle;spacingTop=-1;spacingLeft=3;spacingRight=3;rotatable=0;labelPosition=right;points=[];portConstraint=eastwest;strokeColor=inherit;" vertex="1" parent="KsVcDdZhZaaucAL4_CSv-18">
          <mxGeometry y="80" width="540" height="8" as="geometry" />
        </mxCell>
        <mxCell id="KsVcDdZhZaaucAL4_CSv-21" value="+ autenticar(correo: String, numeroDocumento: String) ::&amp;nbsp;&lt;span class=&quot;selected&quot;&gt;Promise&amp;lt;Object&amp;gt;&lt;/span&gt;&lt;div&gt;+ registrar(datos: Object) ::&amp;nbsp;&lt;span style=&quot;background-color: transparent; color: light-dark(rgb(0, 0, 0), rgb(255, 255, 255));&quot;&gt;Promise&amp;lt;Object&amp;gt;&lt;/span&gt;&lt;/div&gt;&lt;div&gt;+ modificarInformacion(id: UUID, datos: Object) ::&amp;nbsp;&lt;span style=&quot;background-color: transparent; color: light-dark(rgb(0, 0, 0), rgb(255, 255, 255));&quot;&gt;Promise&amp;lt;Object&amp;gt;&lt;/span&gt;&lt;/div&gt;&lt;div&gt;+ desactivar(id: UUID) :: Promise&amp;lt;Object&amp;gt;&lt;br&gt;+ asignarAEntrenamiento(entrenadorId: UUID, entrenamientoId: UUID) ::&amp;nbsp;&lt;span style=&quot;background-color: transparent; color: light-dark(rgb(0, 0, 0), rgb(255, 255, 255));&quot;&gt;Promise&amp;lt;Object&amp;gt;&lt;br&gt;&lt;/span&gt;&lt;span class=&quot;selected&quot;&gt;- registrarDB(datos: Object): Promise&amp;lt;Object&amp;gt;&lt;br&gt;- actualizarDB(id: UUID, datos: Object): Promise&amp;lt;Object&amp;gt;&lt;br&gt;- desactivarDB(id: UUID): Promise&amp;lt;Object&amp;gt;&lt;br&gt;- crearEntrenadorEntrenamientoDB(entrenadorId: UUID, entrenamientoId: UUID): Promise&amp;lt;Object&amp;gt;&lt;/span&gt;&lt;span style=&quot;background-color: transparent; color: light-dark(rgb(0, 0, 0), rgb(255, 255, 255));&quot;&gt;&lt;/span&gt;&lt;/div&gt;" style="text;strokeColor=none;fillColor=none;align=left;verticalAlign=top;spacingLeft=4;spacingRight=4;overflow=hidden;rotatable=0;points=[[0,0.5],[1,0.5]];portConstraint=eastwest;whiteSpace=wrap;html=1;" vertex="1" parent="KsVcDdZhZaaucAL4_CSv-18">
          <mxGeometry y="88" width="540" height="152" as="geometry" />
        </mxCell>
        <mxCell id="KsVcDdZhZaaucAL4_CSv-84" style="edgeStyle=orthogonalEdgeStyle;rounded=0;orthogonalLoop=1;jettySize=auto;html=1;endArrow=none;endFill=0;" edge="1" parent="1" source="KsVcDdZhZaaucAL4_CSv-22" target="KsVcDdZhZaaucAL4_CSv-38">
          <mxGeometry relative="1" as="geometry" />
        </mxCell>
        <mxCell id="KsVcDdZhZaaucAL4_CSv-85" value="1" style="edgeLabel;html=1;align=center;verticalAlign=middle;resizable=0;points=[];" vertex="1" connectable="0" parent="KsVcDdZhZaaucAL4_CSv-84">
          <mxGeometry x="-0.8898" y="2" relative="1" as="geometry">
            <mxPoint x="-12" y="3" as="offset" />
          </mxGeometry>
        </mxCell>
        <mxCell id="KsVcDdZhZaaucAL4_CSv-86" value="1" style="edgeLabel;html=1;align=center;verticalAlign=middle;resizable=0;points=[];" vertex="1" connectable="0" parent="KsVcDdZhZaaucAL4_CSv-84">
          <mxGeometry x="0.7484" relative="1" as="geometry">
            <mxPoint x="10" y="6" as="offset" />
          </mxGeometry>
        </mxCell>
        <mxCell id="KsVcDdZhZaaucAL4_CSv-95" style="edgeStyle=orthogonalEdgeStyle;rounded=0;orthogonalLoop=1;jettySize=auto;html=1;endArrow=none;endFill=0;" edge="1" parent="1" source="KsVcDdZhZaaucAL4_CSv-22" target="KsVcDdZhZaaucAL4_CSv-34">
          <mxGeometry relative="1" as="geometry">
            <Array as="points">
              <mxPoint x="840" y="705.36" />
              <mxPoint x="840" y="705.36" />
            </Array>
          </mxGeometry>
        </mxCell>
        <mxCell id="KsVcDdZhZaaucAL4_CSv-101" value="1" style="edgeLabel;html=1;align=center;verticalAlign=middle;resizable=0;points=[];" vertex="1" connectable="0" parent="KsVcDdZhZaaucAL4_CSv-95">
          <mxGeometry x="-0.9317" relative="1" as="geometry">
            <mxPoint x="3" y="10" as="offset" />
          </mxGeometry>
        </mxCell>
        <mxCell id="KsVcDdZhZaaucAL4_CSv-102" value="1..*" style="edgeLabel;html=1;align=center;verticalAlign=middle;resizable=0;points=[];" vertex="1" connectable="0" parent="KsVcDdZhZaaucAL4_CSv-95">
          <mxGeometry x="0.8927" y="1" relative="1" as="geometry">
            <mxPoint x="-4" y="-9" as="offset" />
          </mxGeometry>
        </mxCell>
        <mxCell id="KsVcDdZhZaaucAL4_CSv-103" value="Inscrito a -&amp;gt;" style="edgeLabel;html=1;align=center;verticalAlign=middle;resizable=0;points=[];" vertex="1" connectable="0" parent="KsVcDdZhZaaucAL4_CSv-95">
          <mxGeometry x="-0.1756" y="2" relative="1" as="geometry">
            <mxPoint x="6" y="-8" as="offset" />
          </mxGeometry>
        </mxCell>
        <mxCell id="KsVcDdZhZaaucAL4_CSv-104" value="&amp;lt;- Posee" style="edgeLabel;html=1;align=center;verticalAlign=middle;resizable=0;points=[];" vertex="1" connectable="0" parent="KsVcDdZhZaaucAL4_CSv-95">
          <mxGeometry x="-0.0098" relative="1" as="geometry">
            <mxPoint x="-11" y="10" as="offset" />
          </mxGeometry>
        </mxCell>
        <mxCell id="KsVcDdZhZaaucAL4_CSv-105" style="edgeStyle=orthogonalEdgeStyle;rounded=0;orthogonalLoop=1;jettySize=auto;html=1;endArrow=none;endFill=0;" edge="1" parent="1" source="KsVcDdZhZaaucAL4_CSv-22" target="KsVcDdZhZaaucAL4_CSv-42">
          <mxGeometry relative="1" as="geometry">
            <Array as="points">
              <mxPoint x="730" y="830" />
              <mxPoint x="730" y="830" />
            </Array>
          </mxGeometry>
        </mxCell>
        <mxCell id="KsVcDdZhZaaucAL4_CSv-106" value="1" style="edgeLabel;html=1;align=center;verticalAlign=middle;resizable=0;points=[];" vertex="1" connectable="0" parent="KsVcDdZhZaaucAL4_CSv-105">
          <mxGeometry x="0.9002" relative="1" as="geometry">
            <mxPoint y="-10" as="offset" />
          </mxGeometry>
        </mxCell>
        <mxCell id="KsVcDdZhZaaucAL4_CSv-107" value="Realiza -&amp;gt;" style="edgeLabel;html=1;align=center;verticalAlign=middle;resizable=0;points=[];" vertex="1" connectable="0" parent="KsVcDdZhZaaucAL4_CSv-105">
          <mxGeometry x="-0.0959" y="-1" relative="1" as="geometry">
            <mxPoint x="7" y="-11" as="offset" />
          </mxGeometry>
        </mxCell>
        <mxCell id="KsVcDdZhZaaucAL4_CSv-108" value="&amp;lt;- Pertenece a" style="edgeLabel;html=1;align=center;verticalAlign=middle;resizable=0;points=[];" vertex="1" connectable="0" parent="KsVcDdZhZaaucAL4_CSv-105">
          <mxGeometry x="0.041" relative="1" as="geometry">
            <mxPoint x="-7" y="10" as="offset" />
          </mxGeometry>
        </mxCell>
        <mxCell id="KsVcDdZhZaaucAL4_CSv-109" value="1" style="edgeLabel;html=1;align=center;verticalAlign=middle;resizable=0;points=[];" vertex="1" connectable="0" parent="KsVcDdZhZaaucAL4_CSv-105">
          <mxGeometry x="-0.9141" y="1" relative="1" as="geometry">
            <mxPoint y="11" as="offset" />
          </mxGeometry>
        </mxCell>
        <mxCell id="KsVcDdZhZaaucAL4_CSv-22" value="Estudiante" style="swimlane;fontStyle=1;align=center;verticalAlign=top;childLayout=stackLayout;horizontal=1;startSize=26;horizontalStack=0;resizeParent=1;resizeParentMax=0;resizeLast=0;collapsible=1;marginBottom=0;whiteSpace=wrap;html=1;" vertex="1" parent="1">
          <mxGeometry x="200" y="665.36" width="480" height="210" as="geometry" />
        </mxCell>
        <mxCell id="KsVcDdZhZaaucAL4_CSv-23" value="- fechaNacimiento: Timestamp&lt;br&gt;&lt;span style=&quot;background-color: transparent; color: light-dark(rgb(0, 0, 0), rgb(255, 255, 255));&quot;&gt;- correo: String&lt;/span&gt;" style="text;strokeColor=none;fillColor=none;align=left;verticalAlign=top;spacingLeft=4;spacingRight=4;overflow=hidden;rotatable=0;points=[[0,0.5],[1,0.5]];portConstraint=eastwest;whiteSpace=wrap;html=1;" vertex="1" parent="KsVcDdZhZaaucAL4_CSv-22">
          <mxGeometry y="26" width="480" height="44" as="geometry" />
        </mxCell>
        <mxCell id="KsVcDdZhZaaucAL4_CSv-24" value="" style="line;strokeWidth=1;fillColor=none;align=left;verticalAlign=middle;spacingTop=-1;spacingLeft=3;spacingRight=3;rotatable=0;labelPosition=right;points=[];portConstraint=eastwest;strokeColor=inherit;" vertex="1" parent="KsVcDdZhZaaucAL4_CSv-22">
          <mxGeometry y="70" width="480" height="8" as="geometry" />
        </mxCell>
        <mxCell id="KsVcDdZhZaaucAL4_CSv-25" value="&lt;div&gt;+ registrar(datos: Object) ::&amp;nbsp;&lt;span style=&quot;background-color: transparent; color: light-dark(rgb(0, 0, 0), rgb(255, 255, 255));&quot;&gt;Promise&amp;lt;Object&amp;gt;&lt;/span&gt;&lt;/div&gt;&lt;div&gt;+ modificarInformacion(id: UUID, datos: Object) ::&amp;nbsp;&lt;span style=&quot;background-color: transparent; color: light-dark(rgb(0, 0, 0), rgb(255, 255, 255));&quot;&gt;Promise&amp;lt;Object&amp;gt;&lt;/span&gt;&lt;/div&gt;&lt;div&gt;+ consultarPorDocumento(tipoDoc: String, numeroDoc: String) ::&amp;nbsp;&lt;span class=&quot;selected&quot;&gt;Promise&amp;lt;Object&amp;gt;&lt;/span&gt;&lt;br&gt;+ actualizarGenero(id: UUID, nuevoGenero: String) ::&amp;nbsp;&lt;span style=&quot;background-color: transparent; color: light-dark(rgb(0, 0, 0), rgb(255, 255, 255));&quot;&gt;Promise&amp;lt;Object&amp;gt;&lt;br&gt;&lt;/span&gt;&lt;span class=&quot;selected&quot;&gt;- registrarEstudianteDB(datos: Object): Promise&amp;lt;Object&amp;gt;&lt;br&gt;- modificarInformacionEstudianteDB(datos: Object): Promise&amp;lt;Object&amp;gt;&lt;br&gt;        - obtenerInformacionCompletaDB(sigla: String, numDoc: String): Promise&amp;lt;Object&amp;gt;&lt;br&gt;        - actualizarGeneroDB(id: UUID, genero: String): Promise&amp;lt;Object&amp;gt;&lt;/span&gt;&lt;span style=&quot;background-color: transparent; color: light-dark(rgb(0, 0, 0), rgb(255, 255, 255));&quot;&gt;&lt;/span&gt;&lt;/div&gt;" style="text;strokeColor=none;fillColor=none;align=left;verticalAlign=top;spacingLeft=4;spacingRight=4;overflow=hidden;rotatable=0;points=[[0,0.5],[1,0.5]];portConstraint=eastwest;whiteSpace=wrap;html=1;" vertex="1" parent="KsVcDdZhZaaucAL4_CSv-22">
          <mxGeometry y="78" width="480" height="132" as="geometry" />
        </mxCell>
        <mxCell id="KsVcDdZhZaaucAL4_CSv-26" value="TipoDocumento" style="swimlane;fontStyle=1;align=center;verticalAlign=top;childLayout=stackLayout;horizontal=1;startSize=26;horizontalStack=0;resizeParent=1;resizeParentMax=0;resizeLast=0;collapsible=1;marginBottom=0;whiteSpace=wrap;html=1;" vertex="1" parent="1">
          <mxGeometry x="-260" y="645.36" width="260" height="130" as="geometry" />
        </mxCell>
        <mxCell id="KsVcDdZhZaaucAL4_CSv-27" value="- id: UUID&lt;div&gt;- sigla: String&lt;/div&gt;&lt;div&gt;- nombre: String&lt;/div&gt;" style="text;strokeColor=none;fillColor=none;align=left;verticalAlign=top;spacingLeft=4;spacingRight=4;overflow=hidden;rotatable=0;points=[[0,0.5],[1,0.5]];portConstraint=eastwest;whiteSpace=wrap;html=1;" vertex="1" parent="KsVcDdZhZaaucAL4_CSv-26">
          <mxGeometry y="26" width="260" height="54" as="geometry" />
        </mxCell>
        <mxCell id="KsVcDdZhZaaucAL4_CSv-28" value="" style="line;strokeWidth=1;fillColor=none;align=left;verticalAlign=middle;spacingTop=-1;spacingLeft=3;spacingRight=3;rotatable=0;labelPosition=right;points=[];portConstraint=eastwest;strokeColor=inherit;" vertex="1" parent="KsVcDdZhZaaucAL4_CSv-26">
          <mxGeometry y="80" width="260" height="8" as="geometry" />
        </mxCell>
        <mxCell id="KsVcDdZhZaaucAL4_CSv-29" value="+ listar() ::&amp;nbsp;&lt;span class=&quot;selected&quot;&gt;Promise&amp;lt;Array&amp;lt;Object&amp;gt;&amp;gt;&lt;br&gt;&lt;span class=&quot;selected&quot;&gt;- obtenerTodosDB(): Promise&amp;lt;Array&amp;lt;Object&amp;gt;&amp;gt;&lt;/span&gt;&lt;/span&gt;" style="text;strokeColor=none;fillColor=none;align=left;verticalAlign=top;spacingLeft=4;spacingRight=4;overflow=hidden;rotatable=0;points=[[0,0.5],[1,0.5]];portConstraint=eastwest;whiteSpace=wrap;html=1;" vertex="1" parent="KsVcDdZhZaaucAL4_CSv-26">
          <mxGeometry y="88" width="260" height="42" as="geometry" />
        </mxCell>
        <mxCell id="KsVcDdZhZaaucAL4_CSv-90" style="edgeStyle=orthogonalEdgeStyle;rounded=0;orthogonalLoop=1;jettySize=auto;html=1;endArrow=none;endFill=0;" edge="1" parent="1" source="KsVcDdZhZaaucAL4_CSv-30" target="KsVcDdZhZaaucAL4_CSv-18">
          <mxGeometry relative="1" as="geometry">
            <Array as="points">
              <mxPoint x="870" y="370" />
              <mxPoint x="870" y="370" />
            </Array>
          </mxGeometry>
        </mxCell>
        <mxCell id="KsVcDdZhZaaucAL4_CSv-91" value="1..*" style="edgeLabel;html=1;align=center;verticalAlign=middle;resizable=0;points=[];" vertex="1" connectable="0" parent="KsVcDdZhZaaucAL4_CSv-90">
          <mxGeometry x="-0.8929" y="1" relative="1" as="geometry">
            <mxPoint x="2" y="-10" as="offset" />
          </mxGeometry>
        </mxCell>
        <mxCell id="KsVcDdZhZaaucAL4_CSv-93" value="1" style="edgeLabel;html=1;align=center;verticalAlign=middle;resizable=0;points=[];" vertex="1" connectable="0" parent="KsVcDdZhZaaucAL4_CSv-90">
          <mxGeometry x="0.9134" y="2" relative="1" as="geometry">
            <mxPoint y="10" as="offset" />
          </mxGeometry>
        </mxCell>
        <mxCell id="KsVcDdZhZaaucAL4_CSv-30" value="Facultad" style="swimlane;fontStyle=1;align=center;verticalAlign=top;childLayout=stackLayout;horizontal=1;startSize=26;horizontalStack=0;resizeParent=1;resizeParentMax=0;resizeLast=0;collapsible=1;marginBottom=0;whiteSpace=wrap;html=1;" vertex="1" parent="1">
          <mxGeometry x="920" y="317" width="270" height="110" as="geometry" />
        </mxCell>
        <mxCell id="KsVcDdZhZaaucAL4_CSv-31" value="- id: UUID&lt;div&gt;- nombre: String&lt;/div&gt;" style="text;strokeColor=none;fillColor=none;align=left;verticalAlign=top;spacingLeft=4;spacingRight=4;overflow=hidden;rotatable=0;points=[[0,0.5],[1,0.5]];portConstraint=eastwest;whiteSpace=wrap;html=1;" vertex="1" parent="KsVcDdZhZaaucAL4_CSv-30">
          <mxGeometry y="26" width="270" height="34" as="geometry" />
        </mxCell>
        <mxCell id="KsVcDdZhZaaucAL4_CSv-32" value="" style="line;strokeWidth=1;fillColor=none;align=left;verticalAlign=middle;spacingTop=-1;spacingLeft=3;spacingRight=3;rotatable=0;labelPosition=right;points=[];portConstraint=eastwest;strokeColor=inherit;" vertex="1" parent="KsVcDdZhZaaucAL4_CSv-30">
          <mxGeometry y="60" width="270" height="8" as="geometry" />
        </mxCell>
        <mxCell id="KsVcDdZhZaaucAL4_CSv-33" value="+ listar() ::&amp;nbsp;&lt;span class=&quot;selected&quot;&gt;Promise&amp;lt;Array&amp;lt;Object&amp;gt;&amp;gt;&lt;br&gt;&lt;span class=&quot;selected&quot;&gt;- obtenerTodasDB(): Promise&amp;lt;Array&amp;lt;Object&amp;gt;&amp;gt;&lt;/span&gt;&lt;/span&gt;" style="text;strokeColor=none;fillColor=none;align=left;verticalAlign=top;spacingLeft=4;spacingRight=4;overflow=hidden;rotatable=0;points=[[0,0.5],[1,0.5]];portConstraint=eastwest;whiteSpace=wrap;html=1;" vertex="1" parent="KsVcDdZhZaaucAL4_CSv-30">
          <mxGeometry y="68" width="270" height="42" as="geometry" />
        </mxCell>
        <mxCell id="KsVcDdZhZaaucAL4_CSv-96" style="edgeStyle=orthogonalEdgeStyle;rounded=0;orthogonalLoop=1;jettySize=auto;html=1;endArrow=none;endFill=0;" edge="1" parent="1" source="KsVcDdZhZaaucAL4_CSv-34" target="KsVcDdZhZaaucAL4_CSv-30">
          <mxGeometry relative="1" as="geometry" />
        </mxCell>
        <mxCell id="KsVcDdZhZaaucAL4_CSv-98" value="0..*" style="edgeLabel;html=1;align=center;verticalAlign=middle;resizable=0;points=[];" vertex="1" connectable="0" parent="KsVcDdZhZaaucAL4_CSv-96">
          <mxGeometry x="-0.8281" y="1" relative="1" as="geometry">
            <mxPoint x="16" y="6" as="offset" />
          </mxGeometry>
        </mxCell>
        <mxCell id="KsVcDdZhZaaucAL4_CSv-99" value="1" style="edgeLabel;html=1;align=center;verticalAlign=middle;resizable=0;points=[];" vertex="1" connectable="0" parent="KsVcDdZhZaaucAL4_CSv-96">
          <mxGeometry x="0.8612" y="-1" relative="1" as="geometry">
            <mxPoint x="-16" as="offset" />
          </mxGeometry>
        </mxCell>
        <mxCell id="KsVcDdZhZaaucAL4_CSv-34" value="Programa" style="swimlane;fontStyle=1;align=center;verticalAlign=top;childLayout=stackLayout;horizontal=1;startSize=26;horizontalStack=0;resizeParent=1;resizeParentMax=0;resizeLast=0;collapsible=1;marginBottom=0;whiteSpace=wrap;html=1;" vertex="1" parent="1">
          <mxGeometry x="885" y="595.36" width="340" height="130" as="geometry" />
        </mxCell>
        <mxCell id="KsVcDdZhZaaucAL4_CSv-35" value="- id: UUID&lt;div&gt;- snies: String&lt;br&gt;&lt;div&gt;- nombre: String&lt;/div&gt;&lt;/div&gt;" style="text;strokeColor=none;fillColor=none;align=left;verticalAlign=top;spacingLeft=4;spacingRight=4;overflow=hidden;rotatable=0;points=[[0,0.5],[1,0.5]];portConstraint=eastwest;whiteSpace=wrap;html=1;" vertex="1" parent="KsVcDdZhZaaucAL4_CSv-34">
          <mxGeometry y="26" width="340" height="54" as="geometry" />
        </mxCell>
        <mxCell id="KsVcDdZhZaaucAL4_CSv-36" value="" style="line;strokeWidth=1;fillColor=none;align=left;verticalAlign=middle;spacingTop=-1;spacingLeft=3;spacingRight=3;rotatable=0;labelPosition=right;points=[];portConstraint=eastwest;strokeColor=inherit;" vertex="1" parent="KsVcDdZhZaaucAL4_CSv-34">
          <mxGeometry y="80" width="340" height="8" as="geometry" />
        </mxCell>
        <mxCell id="KsVcDdZhZaaucAL4_CSv-37" value="+ listar() ::&amp;nbsp;&lt;span class=&quot;selected&quot;&gt;Promise&amp;lt;Array&amp;lt;Object&amp;gt;&amp;gt;&lt;br&gt;-&amp;nbsp;&lt;/span&gt;&lt;span class=&quot;selected&quot;&gt;obtenerTodosLosProgramasDB(): Promise&amp;lt;Array&amp;lt;Object&amp;gt;&amp;gt;&lt;/span&gt;" style="text;strokeColor=none;fillColor=none;align=left;verticalAlign=top;spacingLeft=4;spacingRight=4;overflow=hidden;rotatable=0;points=[[0,0.5],[1,0.5]];portConstraint=eastwest;whiteSpace=wrap;html=1;" vertex="1" parent="KsVcDdZhZaaucAL4_CSv-34">
          <mxGeometry y="88" width="340" height="42" as="geometry" />
        </mxCell>
        <mxCell id="KsVcDdZhZaaucAL4_CSv-38" value="Genero" style="swimlane;fontStyle=1;align=center;verticalAlign=top;childLayout=stackLayout;horizontal=1;startSize=26;horizontalStack=0;resizeParent=1;resizeParentMax=0;resizeLast=0;collapsible=1;marginBottom=0;whiteSpace=wrap;html=1;" vertex="1" parent="1">
          <mxGeometry x="275" y="1005.36" width="330" height="110" as="geometry" />
        </mxCell>
        <mxCell id="KsVcDdZhZaaucAL4_CSv-39" value="- id: UUID&lt;div&gt;- nombre: String&lt;/div&gt;" style="text;strokeColor=none;fillColor=none;align=left;verticalAlign=top;spacingLeft=4;spacingRight=4;overflow=hidden;rotatable=0;points=[[0,0.5],[1,0.5]];portConstraint=eastwest;whiteSpace=wrap;html=1;" vertex="1" parent="KsVcDdZhZaaucAL4_CSv-38">
          <mxGeometry y="26" width="330" height="34" as="geometry" />
        </mxCell>
        <mxCell id="KsVcDdZhZaaucAL4_CSv-40" value="" style="line;strokeWidth=1;fillColor=none;align=left;verticalAlign=middle;spacingTop=-1;spacingLeft=3;spacingRight=3;rotatable=0;labelPosition=right;points=[];portConstraint=eastwest;strokeColor=inherit;" vertex="1" parent="KsVcDdZhZaaucAL4_CSv-38">
          <mxGeometry y="60" width="330" height="8" as="geometry" />
        </mxCell>
        <mxCell id="KsVcDdZhZaaucAL4_CSv-41" value="+ listar() ::&amp;nbsp;&lt;span class=&quot;selected&quot;&gt;Promise&amp;lt;Array&amp;lt;Object&amp;gt;&amp;gt;&lt;br&gt;&lt;span class=&quot;selected&quot;&gt;- obtenerTodosLosGenerosDB(): Promise&amp;lt;Array&amp;lt;Object&amp;gt;&amp;gt;&lt;/span&gt;&lt;/span&gt;" style="text;strokeColor=none;fillColor=none;align=left;verticalAlign=top;spacingLeft=4;spacingRight=4;overflow=hidden;rotatable=0;points=[[0,0.5],[1,0.5]];portConstraint=eastwest;whiteSpace=wrap;html=1;" vertex="1" parent="KsVcDdZhZaaucAL4_CSv-38">
          <mxGeometry y="68" width="330" height="42" as="geometry" />
        </mxCell>
        <mxCell id="KsVcDdZhZaaucAL4_CSv-115" style="edgeStyle=orthogonalEdgeStyle;rounded=0;orthogonalLoop=1;jettySize=auto;html=1;endArrow=none;endFill=0;" edge="1" parent="1" source="KsVcDdZhZaaucAL4_CSv-42" target="KsVcDdZhZaaucAL4_CSv-46">
          <mxGeometry relative="1" as="geometry">
            <Array as="points">
              <mxPoint x="1620" y="885" />
              <mxPoint x="1620" y="885" />
            </Array>
          </mxGeometry>
        </mxCell>
        <mxCell id="KsVcDdZhZaaucAL4_CSv-116" value="1..*" style="edgeLabel;html=1;align=center;verticalAlign=middle;resizable=0;points=[];" vertex="1" connectable="0" parent="KsVcDdZhZaaucAL4_CSv-115">
          <mxGeometry x="0.9124" y="-2" relative="1" as="geometry">
            <mxPoint x="-6" y="-12" as="offset" />
          </mxGeometry>
        </mxCell>
        <mxCell id="KsVcDdZhZaaucAL4_CSv-117" value="1" style="edgeLabel;html=1;align=center;verticalAlign=middle;resizable=0;points=[];" vertex="1" connectable="0" parent="KsVcDdZhZaaucAL4_CSv-115">
          <mxGeometry x="-0.9098" relative="1" as="geometry">
            <mxPoint y="15" as="offset" />
          </mxGeometry>
        </mxCell>
        <mxCell id="KsVcDdZhZaaucAL4_CSv-118" value="Contiene -&amp;gt;" style="edgeLabel;html=1;align=center;verticalAlign=middle;resizable=0;points=[];" vertex="1" connectable="0" parent="KsVcDdZhZaaucAL4_CSv-115">
          <mxGeometry x="-0.0133" y="-1" relative="1" as="geometry">
            <mxPoint y="-16" as="offset" />
          </mxGeometry>
        </mxCell>
        <mxCell id="KsVcDdZhZaaucAL4_CSv-119" value="&amp;lt;- Pertenece a" style="edgeLabel;html=1;align=center;verticalAlign=middle;resizable=0;points=[];" vertex="1" connectable="0" parent="KsVcDdZhZaaucAL4_CSv-115">
          <mxGeometry x="-0.0242" y="-2" relative="1" as="geometry">
            <mxPoint y="13" as="offset" />
          </mxGeometry>
        </mxCell>
        <mxCell id="KsVcDdZhZaaucAL4_CSv-131" style="edgeStyle=orthogonalEdgeStyle;rounded=0;orthogonalLoop=1;jettySize=auto;html=1;endArrow=none;endFill=0;" edge="1" parent="1" source="KsVcDdZhZaaucAL4_CSv-42" target="KsVcDdZhZaaucAL4_CSv-58">
          <mxGeometry relative="1" as="geometry">
            <Array as="points">
              <mxPoint x="1165" y="1224" />
            </Array>
          </mxGeometry>
        </mxCell>
        <mxCell id="KsVcDdZhZaaucAL4_CSv-132" value="1" style="edgeLabel;html=1;align=center;verticalAlign=middle;resizable=0;points=[];" vertex="1" connectable="0" parent="KsVcDdZhZaaucAL4_CSv-131">
          <mxGeometry x="0.9665" relative="1" as="geometry">
            <mxPoint x="4" y="-8" as="offset" />
          </mxGeometry>
        </mxCell>
        <mxCell id="KsVcDdZhZaaucAL4_CSv-133" value="Tiene -&amp;gt;" style="edgeLabel;html=1;align=center;verticalAlign=middle;resizable=0;points=[];" vertex="1" connectable="0" parent="KsVcDdZhZaaucAL4_CSv-131">
          <mxGeometry x="0.0531" y="-1" relative="1" as="geometry">
            <mxPoint y="-11" as="offset" />
          </mxGeometry>
        </mxCell>
        <mxCell id="KsVcDdZhZaaucAL4_CSv-134" value="&amp;lt;- Asociado a" style="edgeLabel;html=1;align=center;verticalAlign=middle;resizable=0;points=[];" vertex="1" connectable="0" parent="KsVcDdZhZaaucAL4_CSv-131">
          <mxGeometry x="0.0396" y="-2" relative="1" as="geometry">
            <mxPoint y="8" as="offset" />
          </mxGeometry>
        </mxCell>
        <mxCell id="KsVcDdZhZaaucAL4_CSv-135" value="1" style="edgeLabel;html=1;align=center;verticalAlign=middle;resizable=0;points=[];" vertex="1" connectable="0" parent="KsVcDdZhZaaucAL4_CSv-131">
          <mxGeometry x="-0.9724" y="-1" relative="1" as="geometry">
            <mxPoint x="-14" as="offset" />
          </mxGeometry>
        </mxCell>
        <mxCell id="KsVcDdZhZaaucAL4_CSv-42" value="EntrenamientoCognitivo" style="swimlane;fontStyle=1;align=center;verticalAlign=top;childLayout=stackLayout;horizontal=1;startSize=26;horizontalStack=0;resizeParent=1;resizeParentMax=0;resizeLast=0;collapsible=1;marginBottom=0;whiteSpace=wrap;html=1;" vertex="1" parent="1">
          <mxGeometry x="885" y="790" width="560" height="190" as="geometry" />
        </mxCell>
        <mxCell id="KsVcDdZhZaaucAL4_CSv-43" value="- id: UUID&lt;br&gt;- fechaInicio: Timestamp&lt;div&gt;- fechaFin:&amp;nbsp;&lt;span style=&quot;background-color: transparent; color: light-dark(rgb(0, 0, 0), rgb(255, 255, 255));&quot;&gt;Timestamp&lt;/span&gt;&lt;/div&gt;" style="text;strokeColor=none;fillColor=none;align=left;verticalAlign=top;spacingLeft=4;spacingRight=4;overflow=hidden;rotatable=0;points=[[0,0.5],[1,0.5]];portConstraint=eastwest;whiteSpace=wrap;html=1;" vertex="1" parent="KsVcDdZhZaaucAL4_CSv-42">
          <mxGeometry y="26" width="560" height="54" as="geometry" />
        </mxCell>
        <mxCell id="KsVcDdZhZaaucAL4_CSv-44" value="" style="line;strokeWidth=1;fillColor=none;align=left;verticalAlign=middle;spacingTop=-1;spacingLeft=3;spacingRight=3;rotatable=0;labelPosition=right;points=[];portConstraint=eastwest;strokeColor=inherit;" vertex="1" parent="KsVcDdZhZaaucAL4_CSv-42">
          <mxGeometry y="80" width="560" height="8" as="geometry" />
        </mxCell>
        <mxCell id="KsVcDdZhZaaucAL4_CSv-45" value="+ crear(datos: Object) ::&amp;nbsp;&lt;span class=&quot;selected&quot;&gt;Promise&amp;lt;Object&amp;gt;&lt;/span&gt;&lt;div&gt;+&amp;nbsp;&lt;span style=&quot;background-color: transparent; color: light-dark(rgb(0, 0, 0), rgb(255, 255, 255));&quot;&gt;modificar(sigla: String, numDoc: String, datos: Object): Promise&amp;lt;Object&amp;gt;&lt;/span&gt;&lt;/div&gt;&lt;div&gt;+ consultarPorEstudiante(tipoDoc: String, numeroDoc: String) ::&amp;nbsp;&lt;span style=&quot;background-color: transparent; color: light-dark(rgb(0, 0, 0), rgb(255, 255, 255));&quot;&gt;Promise&amp;lt;Array&amp;lt;Object&amp;gt;&amp;gt;&lt;br&gt;&lt;/span&gt;&lt;span class=&quot;selected&quot;&gt;- crearEntrenamientoCognitivoDB(datos: Object): Promise&amp;lt;Object&amp;gt;&lt;br&gt;        - modificarEntrenamientoCognitivoDB(datos: Object): Promise&amp;lt;Object&amp;gt;&lt;br&gt;        - obtenerEntrenamientoPorDocumentoDB(tipoDoc: String, numDoc: String): Promise&amp;lt;Array&amp;lt;Object&amp;gt;&amp;gt;&lt;/span&gt;&lt;span style=&quot;background-color: transparent; color: light-dark(rgb(0, 0, 0), rgb(255, 255, 255));&quot;&gt;&lt;/span&gt;&lt;/div&gt;" style="text;strokeColor=none;fillColor=none;align=left;verticalAlign=top;spacingLeft=4;spacingRight=4;overflow=hidden;rotatable=0;points=[[0,0.5],[1,0.5]];portConstraint=eastwest;whiteSpace=wrap;html=1;" vertex="1" parent="KsVcDdZhZaaucAL4_CSv-42">
          <mxGeometry y="88" width="560" height="102" as="geometry" />
        </mxCell>
        <mxCell id="KsVcDdZhZaaucAL4_CSv-120" style="edgeStyle=orthogonalEdgeStyle;rounded=0;orthogonalLoop=1;jettySize=auto;html=1;endArrow=none;endFill=0;" edge="1" parent="1" source="KsVcDdZhZaaucAL4_CSv-46" target="KsVcDdZhZaaucAL4_CSv-50">
          <mxGeometry relative="1" as="geometry" />
        </mxCell>
        <mxCell id="KsVcDdZhZaaucAL4_CSv-121" value="1" style="edgeLabel;html=1;align=center;verticalAlign=middle;resizable=0;points=[];" vertex="1" connectable="0" parent="KsVcDdZhZaaucAL4_CSv-120">
          <mxGeometry x="0.8286" relative="1" as="geometry">
            <mxPoint x="-15" y="1" as="offset" />
          </mxGeometry>
        </mxCell>
        <mxCell id="KsVcDdZhZaaucAL4_CSv-122" value="1" style="edgeLabel;html=1;align=center;verticalAlign=middle;resizable=0;points=[];" vertex="1" connectable="0" parent="KsVcDdZhZaaucAL4_CSv-120">
          <mxGeometry x="-0.8759" y="-1" relative="1" as="geometry">
            <mxPoint x="14" as="offset" />
          </mxGeometry>
        </mxCell>
        <mxCell id="KsVcDdZhZaaucAL4_CSv-123" value="Implementa -&amp;gt;" style="edgeLabel;html=1;align=center;verticalAlign=middle;resizable=0;points=[];rotation=-90;" vertex="1" connectable="0" parent="KsVcDdZhZaaucAL4_CSv-120">
          <mxGeometry x="0.1241" y="2" relative="1" as="geometry">
            <mxPoint x="-13" y="7" as="offset" />
          </mxGeometry>
        </mxCell>
        <mxCell id="KsVcDdZhZaaucAL4_CSv-125" style="edgeStyle=orthogonalEdgeStyle;rounded=0;orthogonalLoop=1;jettySize=auto;html=1;endArrow=none;endFill=0;" edge="1" parent="1" source="KsVcDdZhZaaucAL4_CSv-46" target="KsVcDdZhZaaucAL4_CSv-54">
          <mxGeometry relative="1" as="geometry">
            <Array as="points">
              <mxPoint x="2060" y="900" />
              <mxPoint x="2060" y="900" />
            </Array>
          </mxGeometry>
        </mxCell>
        <mxCell id="KsVcDdZhZaaucAL4_CSv-126" value="Se compone de -&amp;gt;" style="edgeLabel;html=1;align=center;verticalAlign=middle;resizable=0;points=[];" vertex="1" connectable="0" parent="KsVcDdZhZaaucAL4_CSv-125">
          <mxGeometry x="-0.2673" y="2" relative="1" as="geometry">
            <mxPoint x="29" y="-9" as="offset" />
          </mxGeometry>
        </mxCell>
        <mxCell id="KsVcDdZhZaaucAL4_CSv-127" value="1..*" style="edgeLabel;html=1;align=center;verticalAlign=middle;resizable=0;points=[];" vertex="1" connectable="0" parent="KsVcDdZhZaaucAL4_CSv-125">
          <mxGeometry x="0.8527" relative="1" as="geometry">
            <mxPoint y="-10" as="offset" />
          </mxGeometry>
        </mxCell>
        <mxCell id="KsVcDdZhZaaucAL4_CSv-128" value="1" style="edgeLabel;html=1;align=center;verticalAlign=middle;resizable=0;points=[];" vertex="1" connectable="0" parent="KsVcDdZhZaaucAL4_CSv-125">
          <mxGeometry x="-0.8709" y="1" relative="1" as="geometry">
            <mxPoint x="-4" y="11" as="offset" />
          </mxGeometry>
        </mxCell>
        <mxCell id="KsVcDdZhZaaucAL4_CSv-129" value="&amp;lt;- Pertenecen a&amp;nbsp;" style="edgeLabel;html=1;align=center;verticalAlign=middle;resizable=0;points=[];" vertex="1" connectable="0" parent="KsVcDdZhZaaucAL4_CSv-125">
          <mxGeometry x="-0.2527" y="-1" relative="1" as="geometry">
            <mxPoint x="18" y="9" as="offset" />
          </mxGeometry>
        </mxCell>
        <mxCell id="KsVcDdZhZaaucAL4_CSv-136" style="edgeStyle=orthogonalEdgeStyle;rounded=0;orthogonalLoop=1;jettySize=auto;html=1;endArrow=none;endFill=0;" edge="1" parent="1" source="KsVcDdZhZaaucAL4_CSv-46" target="KsVcDdZhZaaucAL4_CSv-58">
          <mxGeometry relative="1" as="geometry" />
        </mxCell>
        <mxCell id="KsVcDdZhZaaucAL4_CSv-137" value="1" style="edgeLabel;html=1;align=center;verticalAlign=middle;resizable=0;points=[];" vertex="1" connectable="0" parent="KsVcDdZhZaaucAL4_CSv-136">
          <mxGeometry x="0.8155" y="-1" relative="1" as="geometry">
            <mxPoint x="6" y="6" as="offset" />
          </mxGeometry>
        </mxCell>
        <mxCell id="KsVcDdZhZaaucAL4_CSv-138" value="Tiene -&amp;gt;" style="edgeLabel;html=1;align=center;verticalAlign=middle;resizable=0;points=[];rotation=90;" vertex="1" connectable="0" parent="KsVcDdZhZaaucAL4_CSv-136">
          <mxGeometry x="-0.2075" relative="1" as="geometry">
            <mxPoint x="15" y="17" as="offset" />
          </mxGeometry>
        </mxCell>
        <mxCell id="KsVcDdZhZaaucAL4_CSv-140" value="Asignado a -&amp;gt;" style="edgeLabel;html=1;align=center;verticalAlign=middle;resizable=0;points=[];rotation=-90;" vertex="1" connectable="0" parent="KsVcDdZhZaaucAL4_CSv-136">
          <mxGeometry x="0.0021" y="-1" relative="1" as="geometry">
            <mxPoint x="-14" as="offset" />
          </mxGeometry>
        </mxCell>
        <mxCell id="KsVcDdZhZaaucAL4_CSv-141" value="1" style="edgeLabel;html=1;align=center;verticalAlign=middle;resizable=0;points=[];" vertex="1" connectable="0" parent="KsVcDdZhZaaucAL4_CSv-136">
          <mxGeometry x="-0.8532" y="-1" relative="1" as="geometry">
            <mxPoint x="-14" as="offset" />
          </mxGeometry>
        </mxCell>
        <mxCell id="KsVcDdZhZaaucAL4_CSv-46" value="AsignacionVariable" style="swimlane;fontStyle=1;align=center;verticalAlign=top;childLayout=stackLayout;horizontal=1;startSize=26;horizontalStack=0;resizeParent=1;resizeParentMax=0;resizeLast=0;collapsible=1;marginBottom=0;whiteSpace=wrap;html=1;" vertex="1" parent="1">
          <mxGeometry x="1670" y="790" width="370" height="220" as="geometry" />
        </mxCell>
        <mxCell id="KsVcDdZhZaaucAL4_CSv-47" value="- id: UUID&lt;div&gt;- nivelinicial: JSON&lt;br&gt;&lt;div&gt;- metricas: JSON&lt;/div&gt;&lt;/div&gt;" style="text;strokeColor=none;fillColor=none;align=left;verticalAlign=top;spacingLeft=4;spacingRight=4;overflow=hidden;rotatable=0;points=[[0,0.5],[1,0.5]];portConstraint=eastwest;whiteSpace=wrap;html=1;" vertex="1" parent="KsVcDdZhZaaucAL4_CSv-46">
          <mxGeometry y="26" width="370" height="54" as="geometry" />
        </mxCell>
        <mxCell id="KsVcDdZhZaaucAL4_CSv-48" value="" style="line;strokeWidth=1;fillColor=none;align=left;verticalAlign=middle;spacingTop=-1;spacingLeft=3;spacingRight=3;rotatable=0;labelPosition=right;points=[];portConstraint=eastwest;strokeColor=inherit;" vertex="1" parent="KsVcDdZhZaaucAL4_CSv-46">
          <mxGeometry y="80" width="370" height="8" as="geometry" />
        </mxCell>
        <mxCell id="KsVcDdZhZaaucAL4_CSv-49" value="&lt;span class=&quot;selected&quot;&gt;+ abandonar(datos: Object): Promise&amp;lt;Object&amp;gt;&lt;br&gt;        + reactivar(datos: Object): Promise&amp;lt;Object&amp;gt;&lt;br&gt;        + finalizar(idAsignacion: UUID): Promise&amp;lt;Object&amp;gt;&lt;br&gt;        + consultarProgreso(idAsignacion: UUID): Promise&amp;lt;Object&amp;gt;&lt;br&gt;- abandonarVariableCognitivaDB(datos: Object): Promise&amp;lt;Object&amp;gt;&lt;br&gt;        - reactivarVariableCognitivaDB(datos: Object): Promise&amp;lt;Object&amp;gt;&lt;br&gt;        - finalizarAsignacionVariableDB(id: UUID): Promise&amp;lt;Object&amp;gt;&lt;br&gt;        - obtenerProgresoVariablePorIdDB(id: UUID): Promise&amp;lt;Object&amp;gt;&lt;/span&gt;" style="text;strokeColor=none;fillColor=none;align=left;verticalAlign=top;spacingLeft=4;spacingRight=4;overflow=hidden;rotatable=0;points=[[0,0.5],[1,0.5]];portConstraint=eastwest;whiteSpace=wrap;html=1;" vertex="1" parent="KsVcDdZhZaaucAL4_CSv-46">
          <mxGeometry y="88" width="370" height="132" as="geometry" />
        </mxCell>
        <mxCell id="KsVcDdZhZaaucAL4_CSv-50" value="VariableCognitiva" style="swimlane;fontStyle=1;align=center;verticalAlign=top;childLayout=stackLayout;horizontal=1;startSize=26;horizontalStack=0;resizeParent=1;resizeParentMax=0;resizeLast=0;collapsible=1;marginBottom=0;whiteSpace=wrap;html=1;" vertex="1" parent="1">
          <mxGeometry x="1675" y="473" width="360" height="180" as="geometry" />
        </mxCell>
        <mxCell id="KsVcDdZhZaaucAL4_CSv-51" value="- id: UUID&lt;div&gt;- activa: Boolean&lt;br&gt;&lt;div&gt;- nombre: String&lt;br&gt;&lt;div&gt;- descripcion: String&lt;/div&gt;&lt;/div&gt;&lt;/div&gt;" style="text;strokeColor=none;fillColor=none;align=left;verticalAlign=top;spacingLeft=4;spacingRight=4;overflow=hidden;rotatable=0;points=[[0,0.5],[1,0.5]];portConstraint=eastwest;whiteSpace=wrap;html=1;" vertex="1" parent="KsVcDdZhZaaucAL4_CSv-50">
          <mxGeometry y="26" width="360" height="74" as="geometry" />
        </mxCell>
        <mxCell id="KsVcDdZhZaaucAL4_CSv-52" value="" style="line;strokeWidth=1;fillColor=none;align=left;verticalAlign=middle;spacingTop=-1;spacingLeft=3;spacingRight=3;rotatable=0;labelPosition=right;points=[];portConstraint=eastwest;strokeColor=inherit;" vertex="1" parent="KsVcDdZhZaaucAL4_CSv-50">
          <mxGeometry y="100" width="360" height="8" as="geometry" />
        </mxCell>
        <mxCell id="KsVcDdZhZaaucAL4_CSv-53" value="&lt;span class=&quot;selected&quot;&gt;+ listar(): Promise&amp;lt;Array&amp;lt;Object&amp;gt;&amp;gt;&lt;br&gt;        + obtenerIdPorNombre(nombre: String): Promise&amp;lt;Object&amp;gt;&lt;br&gt;        - obtenerTiposVariablesCognitivasDB(): Promise&amp;lt;Array&amp;lt;Object&amp;gt;&amp;gt;&lt;br&gt;        - obtenerIdPorNombreDB(nombre: String): Promise&amp;lt;Object&amp;gt;&lt;/span&gt;" style="text;strokeColor=none;fillColor=none;align=left;verticalAlign=top;spacingLeft=4;spacingRight=4;overflow=hidden;rotatable=0;points=[[0,0.5],[1,0.5]];portConstraint=eastwest;whiteSpace=wrap;html=1;" vertex="1" parent="KsVcDdZhZaaucAL4_CSv-50">
          <mxGeometry y="108" width="360" height="72" as="geometry" />
        </mxCell>
        <mxCell id="KsVcDdZhZaaucAL4_CSv-142" style="edgeStyle=orthogonalEdgeStyle;rounded=0;orthogonalLoop=1;jettySize=auto;html=1;endArrow=none;endFill=0;" edge="1" parent="1" source="KsVcDdZhZaaucAL4_CSv-54" target="KsVcDdZhZaaucAL4_CSv-58">
          <mxGeometry relative="1" as="geometry">
            <Array as="points">
              <mxPoint x="2490" y="1230" />
            </Array>
          </mxGeometry>
        </mxCell>
        <mxCell id="KsVcDdZhZaaucAL4_CSv-143" value="1" style="edgeLabel;html=1;align=center;verticalAlign=middle;resizable=0;points=[];" vertex="1" connectable="0" parent="KsVcDdZhZaaucAL4_CSv-142">
          <mxGeometry x="0.9808" y="1" relative="1" as="geometry">
            <mxPoint y="9" as="offset" />
          </mxGeometry>
        </mxCell>
        <mxCell id="KsVcDdZhZaaucAL4_CSv-144" value="&amp;lt;- Tiene" style="edgeLabel;html=1;align=center;verticalAlign=middle;resizable=0;points=[];" vertex="1" connectable="0" parent="KsVcDdZhZaaucAL4_CSv-142">
          <mxGeometry x="0.2021" y="2" relative="1" as="geometry">
            <mxPoint x="-2" y="8" as="offset" />
          </mxGeometry>
        </mxCell>
        <mxCell id="KsVcDdZhZaaucAL4_CSv-145" value="Asignado a -&amp;gt;" style="edgeLabel;html=1;align=center;verticalAlign=middle;resizable=0;points=[];" vertex="1" connectable="0" parent="KsVcDdZhZaaucAL4_CSv-142">
          <mxGeometry x="0.2171" y="-1" relative="1" as="geometry">
            <mxPoint x="11" y="-9" as="offset" />
          </mxGeometry>
        </mxCell>
        <mxCell id="KsVcDdZhZaaucAL4_CSv-146" value="1" style="edgeLabel;html=1;align=center;verticalAlign=middle;resizable=0;points=[];" vertex="1" connectable="0" parent="KsVcDdZhZaaucAL4_CSv-142">
          <mxGeometry x="-0.9146" y="-2" relative="1" as="geometry">
            <mxPoint x="-7" y="-17" as="offset" />
          </mxGeometry>
        </mxCell>
        <mxCell id="KsVcDdZhZaaucAL4_CSv-54" value="SesionEntrenamiento" style="swimlane;fontStyle=1;align=center;verticalAlign=top;childLayout=stackLayout;horizontal=1;startSize=26;horizontalStack=0;resizeParent=1;resizeParentMax=0;resizeLast=0;collapsible=1;marginBottom=0;whiteSpace=wrap;html=1;" vertex="1" parent="1">
          <mxGeometry x="2260" y="775" width="460" height="250" as="geometry" />
        </mxCell>
        <mxCell id="KsVcDdZhZaaucAL4_CSv-55" value="- id: UUID&lt;div&gt;- numeroSesion: int&lt;/div&gt;&lt;div&gt;- fechaInicio: Timestamp&lt;br&gt;- fechaFin: Timestamp&lt;br&gt;- observacion: String&lt;/div&gt;" style="text;strokeColor=none;fillColor=none;align=left;verticalAlign=top;spacingLeft=4;spacingRight=4;overflow=hidden;rotatable=0;points=[[0,0.5],[1,0.5]];portConstraint=eastwest;whiteSpace=wrap;html=1;" vertex="1" parent="KsVcDdZhZaaucAL4_CSv-54">
          <mxGeometry y="26" width="460" height="84" as="geometry" />
        </mxCell>
        <mxCell id="KsVcDdZhZaaucAL4_CSv-56" value="" style="line;strokeWidth=1;fillColor=none;align=left;verticalAlign=middle;spacingTop=-1;spacingLeft=3;spacingRight=3;rotatable=0;labelPosition=right;points=[];portConstraint=eastwest;strokeColor=inherit;" vertex="1" parent="KsVcDdZhZaaucAL4_CSv-54">
          <mxGeometry y="110" width="460" height="8" as="geometry" />
        </mxCell>
        <mxCell id="KsVcDdZhZaaucAL4_CSv-57" value="&lt;span class=&quot;selected&quot;&gt;+crear(datos: Object): Promise&amp;lt;Object&amp;gt;&lt;br/&gt;        +iniciar(idSesion: UUID): Promise&amp;lt;Object&amp;gt;&lt;br/&gt;        +finalizar(idSesion: UUID, metricas: JSONB, nivel: JSONB): Promise&amp;lt;Object&amp;gt;&lt;br/&gt;        +actualizarObservacion(idSesion: UUID, observacion: String): Promise&amp;lt;Object&amp;gt;&lt;br/&gt;        -crearSesionDB(datos: Object): Promise&amp;lt;Object&amp;gt;&lt;br/&gt;        -iniciarSesionDB(id: UUID): Promise&amp;lt;Object&amp;gt;&lt;br/&gt;        -finalizarSesionDB(id: UUID, metricas: JSONB, nivel: JSONB): Promise&amp;lt;Object&amp;gt;&lt;br/&gt;        -actualizarObservacionSesionDB(id: UUID, obs: String): Promise&amp;lt;Object&amp;gt;&lt;/span&gt;" style="text;strokeColor=none;fillColor=none;align=left;verticalAlign=top;spacingLeft=4;spacingRight=4;overflow=hidden;rotatable=0;points=[[0,0.5],[1,0.5]];portConstraint=eastwest;whiteSpace=wrap;html=1;" vertex="1" parent="KsVcDdZhZaaucAL4_CSv-54">
          <mxGeometry y="118" width="460" height="132" as="geometry" />
        </mxCell>
        <mxCell id="KsVcDdZhZaaucAL4_CSv-58" value="Estado" style="swimlane;fontStyle=1;align=center;verticalAlign=top;childLayout=stackLayout;horizontal=1;startSize=26;horizontalStack=0;resizeParent=1;resizeParentMax=0;resizeLast=0;collapsible=1;marginBottom=0;whiteSpace=wrap;html=1;" vertex="1" parent="1">
          <mxGeometry x="1765" y="1169" width="180" height="110" as="geometry" />
        </mxCell>
        <mxCell id="KsVcDdZhZaaucAL4_CSv-59" value="- id: UUID&lt;br&gt;- nombre: String&lt;div&gt;- codigo: String&lt;/div&gt;" style="text;strokeColor=none;fillColor=none;align=left;verticalAlign=top;spacingLeft=4;spacingRight=4;overflow=hidden;rotatable=0;points=[[0,0.5],[1,0.5]];portConstraint=eastwest;whiteSpace=wrap;html=1;" vertex="1" parent="KsVcDdZhZaaucAL4_CSv-58">
          <mxGeometry y="26" width="180" height="54" as="geometry" />
        </mxCell>
        <mxCell id="KsVcDdZhZaaucAL4_CSv-60" value="" style="line;strokeWidth=1;fillColor=none;align=left;verticalAlign=middle;spacingTop=-1;spacingLeft=3;spacingRight=3;rotatable=0;labelPosition=right;points=[];portConstraint=eastwest;strokeColor=inherit;" vertex="1" parent="KsVcDdZhZaaucAL4_CSv-58">
          <mxGeometry y="80" width="180" height="30" as="geometry" />
        </mxCell>
        <mxCell id="KsVcDdZhZaaucAL4_CSv-68" style="edgeStyle=orthogonalEdgeStyle;rounded=0;orthogonalLoop=1;jettySize=auto;html=1;entryX=0.75;entryY=0;entryDx=0;entryDy=0;endArrow=none;endFill=0;" edge="1" parent="1" source="KsVcDdZhZaaucAL4_CSv-21" target="KsVcDdZhZaaucAL4_CSv-26">
          <mxGeometry relative="1" as="geometry" />
        </mxCell>
        <mxCell id="KsVcDdZhZaaucAL4_CSv-69" value="1" style="edgeLabel;html=1;align=center;verticalAlign=middle;resizable=0;points=[];" vertex="1" connectable="0" parent="KsVcDdZhZaaucAL4_CSv-68">
          <mxGeometry x="-0.9212" y="3" relative="1" as="geometry">
            <mxPoint x="4" y="-20" as="offset" />
          </mxGeometry>
        </mxCell>
        <mxCell id="KsVcDdZhZaaucAL4_CSv-70" value="1" style="edgeLabel;html=1;align=center;verticalAlign=middle;resizable=0;points=[];" vertex="1" connectable="0" parent="KsVcDdZhZaaucAL4_CSv-68">
          <mxGeometry x="0.9393" y="4" relative="1" as="geometry">
            <mxPoint x="11" as="offset" />
          </mxGeometry>
        </mxCell>
        <mxCell id="KsVcDdZhZaaucAL4_CSv-74" style="edgeStyle=orthogonalEdgeStyle;rounded=0;orthogonalLoop=1;jettySize=auto;html=1;entryX=1.002;entryY=0.79;entryDx=0;entryDy=0;entryPerimeter=0;endArrow=none;endFill=0;" edge="1" parent="1" source="KsVcDdZhZaaucAL4_CSv-23" target="KsVcDdZhZaaucAL4_CSv-27">
          <mxGeometry relative="1" as="geometry" />
        </mxCell>
        <mxCell id="KsVcDdZhZaaucAL4_CSv-80" value="1" style="edgeLabel;html=1;align=center;verticalAlign=middle;resizable=0;points=[];" vertex="1" connectable="0" parent="KsVcDdZhZaaucAL4_CSv-74">
          <mxGeometry x="-0.8744" relative="1" as="geometry">
            <mxPoint x="2" y="-8" as="offset" />
          </mxGeometry>
        </mxCell>
        <mxCell id="KsVcDdZhZaaucAL4_CSv-81" value="1" style="edgeLabel;html=1;align=center;verticalAlign=middle;resizable=0;points=[];" vertex="1" connectable="0" parent="KsVcDdZhZaaucAL4_CSv-74">
          <mxGeometry x="0.8283" relative="1" as="geometry">
            <mxPoint x="-8" y="11" as="offset" />
          </mxGeometry>
        </mxCell>
        <mxCell id="KsVcDdZhZaaucAL4_CSv-75" style="edgeStyle=orthogonalEdgeStyle;rounded=0;orthogonalLoop=1;jettySize=auto;html=1;exitX=0;exitY=0.5;exitDx=0;exitDy=0;entryX=-0.005;entryY=0.147;entryDx=0;entryDy=0;entryPerimeter=0;endArrow=block;endFill=0;" edge="1" parent="1" source="KsVcDdZhZaaucAL4_CSv-25" target="KsVcDdZhZaaucAL4_CSv-9">
          <mxGeometry relative="1" as="geometry">
            <Array as="points">
              <mxPoint x="-330" y="744" />
              <mxPoint x="-330" y="28" />
            </Array>
          </mxGeometry>
        </mxCell>
        <mxCell id="KsVcDdZhZaaucAL4_CSv-76" value="&lt;font face=&quot;Helvetica&quot;&gt;&lt;span style=&quot;font-size: 11px;&quot;&gt;Asociado a -&amp;gt;&lt;/span&gt;&lt;/font&gt;" style="text;html=1;align=center;verticalAlign=middle;resizable=0;points=[];autosize=1;strokeColor=none;fillColor=none;fontSize=20;fontFamily=Architects Daughter;fontSource=https%3A%2F%2Ffonts.googleapis.com%2Fcss%3Ffamily%3DArchitects%2BDaughter;rotation=0;" vertex="1" parent="1">
          <mxGeometry x="-30" y="360" width="86" height="37" as="geometry" />
        </mxCell>
        <mxCell id="KsVcDdZhZaaucAL4_CSv-77" value="&amp;lt;- Tiene" style="text;html=1;align=center;verticalAlign=middle;resizable=0;points=[];autosize=1;strokeColor=none;fillColor=none;" vertex="1" parent="1">
          <mxGeometry x="-25" y="397" width="65" height="30" as="geometry" />
        </mxCell>
        <mxCell id="KsVcDdZhZaaucAL4_CSv-78" value="&lt;font face=&quot;Helvetica&quot;&gt;&lt;span style=&quot;font-size: 11px;&quot;&gt;Asociado a -&amp;gt;&lt;/span&gt;&lt;/font&gt;" style="text;html=1;align=center;verticalAlign=middle;resizable=0;points=[];autosize=1;strokeColor=none;fillColor=none;fontSize=20;fontFamily=Architects Daughter;fontSource=https%3A%2F%2Ffonts.googleapis.com%2Fcss%3Ffamily%3DArchitects%2BDaughter;rotation=-90;" vertex="1" parent="1">
          <mxGeometry x="-190" y="440" width="86" height="37" as="geometry" />
        </mxCell>
        <mxCell id="KsVcDdZhZaaucAL4_CSv-79" value="Tiene -&amp;gt;" style="text;html=1;align=center;verticalAlign=middle;resizable=0;points=[];autosize=1;strokeColor=none;fillColor=none;rotation=90;" vertex="1" parent="1">
          <mxGeometry x="-152" y="447" width="70" height="30" as="geometry" />
        </mxCell>
        <mxCell id="KsVcDdZhZaaucAL4_CSv-82" value="&lt;font face=&quot;Helvetica&quot;&gt;&lt;span style=&quot;font-size: 11px;&quot;&gt;Asociado a -&amp;gt;&lt;/span&gt;&lt;/font&gt;" style="text;html=1;align=center;verticalAlign=middle;resizable=0;points=[];autosize=1;strokeColor=none;fillColor=none;fontSize=20;fontFamily=Architects Daughter;fontSource=https%3A%2F%2Ffonts.googleapis.com%2Fcss%3Ffamily%3DArchitects%2BDaughter;rotation=0;" vertex="1" parent="1">
          <mxGeometry x="50" y="675.36" width="86" height="37" as="geometry" />
        </mxCell>
        <mxCell id="KsVcDdZhZaaucAL4_CSv-83" value="&amp;lt;- Tiene" style="text;html=1;align=center;verticalAlign=middle;resizable=0;points=[];autosize=1;strokeColor=none;fillColor=none;" vertex="1" parent="1">
          <mxGeometry x="50" y="712.36" width="65" height="30" as="geometry" />
        </mxCell>
        <mxCell id="KsVcDdZhZaaucAL4_CSv-88" value="Tiene -&amp;gt;" style="text;html=1;align=center;verticalAlign=middle;resizable=0;points=[];autosize=1;strokeColor=none;fillColor=none;rotation=90;" vertex="1" parent="1">
          <mxGeometry x="418" y="925.36" width="70" height="30" as="geometry" />
        </mxCell>
        <mxCell id="KsVcDdZhZaaucAL4_CSv-89" value="&lt;font face=&quot;Helvetica&quot;&gt;&lt;span style=&quot;font-size: 11px;&quot;&gt;Asociado a -&amp;gt;&lt;/span&gt;&lt;/font&gt;" style="text;html=1;align=center;verticalAlign=middle;resizable=0;points=[];autosize=1;strokeColor=none;fillColor=none;fontSize=20;fontFamily=Architects Daughter;fontSource=https%3A%2F%2Ffonts.googleapis.com%2Fcss%3Ffamily%3DArchitects%2BDaughter;rotation=-90;" vertex="1" parent="1">
          <mxGeometry x="387" y="921.86" width="86" height="37" as="geometry" />
        </mxCell>
        <mxCell id="KsVcDdZhZaaucAL4_CSv-92" value="Asignado a -&amp;gt;" style="text;html=1;align=center;verticalAlign=middle;resizable=0;points=[];autosize=1;strokeColor=none;fillColor=none;" vertex="1" parent="1">
          <mxGeometry x="760" y="340" width="100" height="30" as="geometry" />
        </mxCell>
        <mxCell id="KsVcDdZhZaaucAL4_CSv-94" value="&amp;lt;- Asignada a" style="text;html=1;align=center;verticalAlign=middle;resizable=0;points=[];autosize=1;strokeColor=none;fillColor=none;" vertex="1" parent="1">
          <mxGeometry x="755" y="370" width="100" height="30" as="geometry" />
        </mxCell>
        <mxCell id="KsVcDdZhZaaucAL4_CSv-97" value="Ofrece -&amp;gt;" style="text;html=1;align=center;verticalAlign=middle;resizable=0;points=[];autosize=1;strokeColor=none;fillColor=none;rotation=90;" vertex="1" parent="1">
          <mxGeometry x="1030" y="490" width="70" height="30" as="geometry" />
        </mxCell>
        <mxCell id="KsVcDdZhZaaucAL4_CSv-100" value="Pertenece a -&amp;gt;" style="text;html=1;align=center;verticalAlign=middle;resizable=0;points=[];autosize=1;strokeColor=none;fillColor=none;rotation=-90;" vertex="1" parent="1">
          <mxGeometry x="990" y="500" width="100" height="30" as="geometry" />
        </mxCell>
        <mxCell id="KsVcDdZhZaaucAL4_CSv-124" value="Asignado -&amp;gt;" style="edgeLabel;html=1;align=center;verticalAlign=middle;resizable=0;points=[];rotation=90;" vertex="1" connectable="0" parent="1">
          <mxGeometry x="1870" y="725.36" as="geometry">
            <mxPoint x="-2" y="0.9999999999999999" as="offset" />
          </mxGeometry>
        </mxCell>
      </root>
    </mxGraphModel>
  </diagram>
</mxfile>
